# xmcd
# 
# Track frame offsets:
#     150
#     15613
#     30609
#     65621
# 
# Disc length: 1339
# 
# Revision: 0
# Processed by: cddbd v1.5.2PL0 Copyright (c) Steve Scherf et al.
# Submitted via: fre:ac v1.0.17
# 
DISCID=2b053904
DTITLE=SABRINA WASHINGTON - OMG (OH MY GOSH)
DYEAR=2010
DGENRE=
TTITLE0=OMG (OH MY GOSH) Radio Edit
TTITLE1=OMG (OH MY GOSH) soulshaker radio
TTITLE2=OMG (OH MY GOSH) soulshaker club
TTITLE3=OMG (OH MY GOSH) soulshaker dub
EXTD=
EXTT0=
EXTT1=
EXTT2=
EXTT3=
PLAYORDER=
